<svg xmlns="http://www.w3.org/2000/svg" id="Icons" viewBox="0 0 60 60" width="300" height="300" version="1.1" xmlns:xlink="http://www.w3.org/1999/xlink" xmlns:svgjs="http://svgjs.dev/svgjs"><g width="100%" height="100%" transform="matrix(1,0,0,1,0,0)"><path d="M58,0H26a2,2,0,0,0-2,2V17.457l-.595-.57a10.285,10.285,0,0,0-5.65-2.765A6.974,6.974,0,0,0,20,9V7A7,7,0,0,0,6,7V9a6.976,6.976,0,0,0,2.285,5.158A10.008,10.008,0,0,0,0,24V35.339A3.743,3.743,0,0,0,1.173,38.05a3.386,3.386,0,0,0,2.54.941A3.476,3.476,0,0,0,5,38.662V55.3a4.608,4.608,0,0,0,4.26,4.7c.078,0,.156.006.233.006a4.481,4.481,0,0,0,3.11-1.242,4.86,4.86,0,0,0,.4-.43,4.86,4.86,0,0,0,.4.43,4.486,4.486,0,0,0,3.346,1.236A4.607,4.607,0,0,0,21,55.3V24.309l3,2.865v14a2.985,2.985,0,0,0,.883,2.127l5.82,5.82A2.985,2.985,0,0,0,32.83,50H58a2,2,0,0,0,2-2V2A2,2,0,0,0,58,0ZM8,9V7A5,5,0,0,1,18,7V9A5,5,0,0,1,8,9Zm3.877,11h2.245l.868,6.682-2,1.313L11,26.67Zm-.6-4h3.438l-.5,2H11.781Zm9.409,5.248a1,1,0,0,0-1.69.723V55.3A2.642,2.642,0,0,1,16.641,58a2.437,2.437,0,0,1-1.865-.687A2.48,2.48,0,0,1,14,55.5v-15.5a1,1,0,0,0-2,0V55.5a2.48,2.48,0,0,1-.776,1.813A2.43,2.43,0,0,1,9.362,58,2.642,2.642,0,0,1,7,55.3V35.5H7V24a1,1,0,0,0-2,0V35.5H5a1.491,1.491,0,0,1-1.407,1.5,1.447,1.447,0,0,1-1.049-.4A1.733,1.733,0,0,1,2,35.339V24a8.009,8.009,0,0,1,7.229-7.959l.755,3.018-.968,7.358A2.009,2.009,0,0,0,9.9,28.348l1.975,1.312a2.019,2.019,0,0,0,2.244,0L16.1,28.348a2.011,2.011,0,0,0,.885-1.94l-.967-7.351.758-3.031a8.3,8.3,0,0,1,5.247,2.3l7.671,7.362a.4.4,0,0,0,.03.029l2.809,2.7a1.49,1.49,0,0,1,.048,2.124A1.494,1.494,0,0,1,31.523,31a1.573,1.573,0,0,1-1.063-.418ZM31,46.586,27.414,43H31ZM58,48H33V44H54a1,1,0,0,0,0-2H32.722A1.993,1.993,0,0,0,31,41H26V29.085l3.074,2.936A3.624,3.624,0,0,0,31.559,33a3.474,3.474,0,0,0,2.375-1H54a1,1,0,0,0,0-2H34.954A3.6,3.6,0,0,0,35,29.43a3.542,3.542,0,0,0-1.078-2.451L32.9,26H54a1,1,0,0,0,0-2H30.818L26,19.377V2H58Z" fill="#000000" fill-opacity="1" data-original-color="#000000ff" stroke="none" stroke-opacity="1"/><path d="M54,36H30a1,1,0,0,0,0,2H54a1,1,0,0,0,0-2Z" fill="#000000" fill-opacity="1" data-original-color="#000000ff" stroke="none" stroke-opacity="1"/><path d="M35,21H50a1,1,0,0,0,0-2H48V15a1,1,0,0,0-2,0v4H44V12a1,1,0,0,0-2,0v7H40V15a1,1,0,0,0-2,0v4H36V6a1,1,0,0,0-2,0V20A1,1,0,0,0,35,21Z" fill="#000000" fill-opacity="1" data-original-color="#000000ff" stroke="none" stroke-opacity="1"/><path d="M39.707,10.707,43,7.414l3.293,3.293a1,1,0,0,0,1.414,0l3-3a1,1,0,1,0-1.414-1.414L47,8.586,43.707,5.293a1,1,0,0,0-1.414,0l-4,4a1,1,0,0,0,1.414,1.414Z" fill="#000000" fill-opacity="1" data-original-color="#000000ff" stroke="none" stroke-opacity="1"/></g></svg>