<svg height="512" viewBox="0 0 60 60" width="512" xmlns="http://www.w3.org/2000/svg"><g id="Page-1" fill="none" fill-rule="evenodd"><g id="013---Chat" fill="rgb(0,0,0)"><g fill-rule="nonzero"><path id="Shape" d="m4 27h8v29c0 2.209139 1.790861 4 4 4h28c2.209139 0 4-1.790861 4-4v-9h8c2.209139 0 4-1.790861 4-4v-8c0-2.209139-1.790861-4-4-4h-8v-27c0-2.209139-1.790861-4-4-4h-28c-2.209139 0-4 1.790861-4 4v7h-8c-2.209139 0-4 1.790861-4 4v8c0 2.209139 1.790861 4 4 4zm40 31h-28c-1.1045695 0-2-.8954305-2-2v-1.556c.6053465.3599241 1.2957468.5518554 2 .556h28c.7042532-.0041446 1.3946535-.1960759 2-.556v1.556c0 1.1045695-.8954305 2-2 2zm14-23v8c0 1.1045695-.8954305 2-2 2h-22c-1.1045695 0-2-.8954305-2-2v-1c0-.3147573-.1481942-.6111456-.4-.8l-2.933-2.2 2.933-2.2c.2518058-.1888544.4-.4852427.4-.8v-1c0-1.1045695.8954305-2 2-2h22c1.1045695 0 2 .8954305 2 2zm-20.308-33-1.282 1.368c-.378896.40269492-.907076.63133176-1.46.632h-9.9c-.5527743.00000995-1.0809024-.22876112-1.459-.632l-1.282-1.368zm-23.692 2c0-1.1045695.8954305-2 2-2h3.567l2.565 2.735c.7567936.80574999 1.8125738 1.2634477 2.918 1.265h9.9c1.1054015-.00208587 2.1611681-.45925919 2.919-1.264l2.564-2.736h3.567c1.1045695 0 2 .8954305 2 2v27h-12c-2.209139 0-4 1.790861-4 4v.5l-3.6 2.7c-.2518058.1888544-.4.4852427-.4.8s.1481942.6111456.4.8l3.6 2.7v.5c0 2.209139 1.790861 4 4 4h12v4c0 1.1045695-.8954305 2-2 2h-28c-1.1045695 0-2-.8954305-2-2v-24h12c2.209139 0 4-1.790861 4-4v-.5l3.6-2.7c.2518058-.1888544.4-.4852427.4-.8s-.1481942-.6111456-.4-.8l-3.6-2.7v-.5c0-2.209139-1.790861-4-4-4h-12zm-12 11c0-1.1045695.8954305-2 2-2h22c1.1045695 0 2 .8954305 2 2v1c0 .3147573.1481942.6111456.4.8l2.933 2.2-2.933 2.2c-.2518058.1888544-.4.4852427-.4.8v1c0 1.1045695-.8954305 2-2 2h-22c-1.1045695 0-2-.8954305-2-2z"/><path id="Shape" d="m40 23c2.209139 0 4-1.790861 4-4s-1.790861-4-4-4-4 1.790861-4 4 1.790861 4 4 4zm0-6c1.1045695 0 2 .8954305 2 2s-.8954305 2-2 2-2-.8954305-2-2 .8954305-2 2-2z"/><path id="Shape" d="m20 35c-2.209139 0-4 1.790861-4 4s1.790861 4 4 4 4-1.790861 4-4-1.790861-4-4-4zm0 6c-1.1045695 0-2-.8954305-2-2s.8954305-2 2-2 2 .8954305 2 2-.8954305 2-2 2z"/></g><path id="Path" d="m6 18h18c.5522847 0 1-.4477153 1-1s-.4477153-1-1-1h-18c-.55228475 0-1 .4477153-1 1s.44771525 1 1 1z"/><path id="Path" d="m6 22h4c.5522847 0 1-.4477153 1-1s-.4477153-1-1-1h-4c-.55228475 0-1 .4477153-1 1s.44771525 1 1 1z"/><path id="Path" d="m24 20h-10c-.5522847 0-1 .4477153-1 1s.4477153 1 1 1h10c.5522847 0 1-.4477153 1-1s-.4477153-1-1-1z"/><path id="Path" d="m35 37c0 .5522847.4477153 1 1 1h18c.5522847 0 1-.4477153 1-1s-.4477153-1-1-1h-18c-.5522847 0-1 .4477153-1 1z"/><path id="Path" d="m40 40h-4c-.5522847 0-1 .4477153-1 1s.4477153 1 1 1h4c.5522847 0 1-.4477153 1-1s-.4477153-1-1-1z"/><path id="Path" d="m54 40h-10c-.5522847 0-1 .4477153-1 1s.4477153 1 1 1h10c.5522847 0 1-.4477153 1-1s-.4477153-1-1-1z"/></g></g></svg>