<svg id="Layer_1" enable-background="new 0 0 68 68" height="512" viewBox="0 0 68 68" width="512" xmlns="http://www.w3.org/2000/svg"><g id="_x31_18"><path d="m61.9 49.4c.6 0 1-.4 1-1v-39.6h2.1c.6 0 1-.4 1-1v-4.8c0-.6-.4-1-1-1h-47.5c-.6 0-1 .4-1 1v4.8c0 .6.4 1 1 1h3.2v7.5h-17.7c-.6 0-1 .4-1 1v4.8c0 .6.4 1 1 1h1.2v35.8h-1.2c-.6 0-1 .4-1 1v5.1c0 .6.4 1 1 1h62c.6 0 1-.4 1-1v-5.1c0-.6-.4-1-1-1h-2.1c0-5.4-4.4-9.8-9.8-9.8-2.3 0-4.5.8-6.2 2.2-1.2-2-3.3-3.4-5.7-3.6-.7-.4-1.2-.9-1.6-1.5 2.9-2 2.4-5.3 2.5-5.5 1-1.7 1.4-3.1 1.6-4.4.7-3.4-4.4-6.7-6.7-3.4-2-.3-3.9 0-5.3.9-.9.6-1.5 1.4-1.7 2.3-.5 2.4.3 4 .7 4.7.1.2-.5 3.6 2.7 5.6-.3.5-.8.9-1.4 1.3-3.7.2-6.7 3.4-6.7 7.1v4h-2.6v-50h38.2v39.6c0 .6.5 1 1 1zm-57.9-28.2v-2.8h16.7v2.8zm16.7 2v35.7h-14.5v-35.7zm32.4 27.9c4.3 0 7.8 3.5 7.8 7.8-1.3 0 4.9 0-13.1 0-.1-3.7.1-4.3-.2-5.6.4-.2 2.2-2.2 5.5-2.2zm-11.9-1.3c2.6.3 4.6 2.5 4.6 5.1v4h-8.2v-5.4zm-4.6 1.9-2.7-2.7c.6-.5 1.1-1.1 1.5-1.7.8.2 1.6.1 2.5-.1.4.7.8 1.3 1.5 1.8zm-4.7-13.6-.1.1c-.1-.5 0-1 .1-1.6.2-.9 2.2-2.2 5.4-1.4.5.1 1-.1 1.2-.6.9-2.1 3.6 0 3.3 1.5-.2.8-.4 1.6-.8 2.6-.3-.3-.6-1.4-1.8-1.4h-5.8c-.7-.1-1.2.2-1.5.8zm.8 3.5v-.8l.9-1.6h5.4l1.1 1.6v.8c0 2.5-2.5 4.4-5 3.5-1.4-.6-2.4-1.9-2.4-3.5zm-5.4 13.3c0-2.6 2-4.8 4.6-5.1l3.7 3.7v5.4h-8.2v-4zm36.7 6v3.1h-60v-3.1zm-45.5-54.1v-2.8h45.5v2.8z"/><path d="m11.3 31.7h4.4c.6 0 1-.4 1-1s-.4-1-1-1h-4.4c-.6 0-1 .4-1 1s.4 1 1 1z"/><path d="m11.3 38.6h4.4c.6 0 1-.4 1-1s-.4-1-1-1h-4.4c-.6 0-1 .4-1 1s.4 1 1 1z"/><path d="m11.3 45.4h4.4c.6 0 1-.4 1-1s-.4-1-1-1h-4.4c-.6 0-1 .4-1 1s.4 1 1 1z"/><path d="m11.3 52.4h4.4c.6 0 1-.4 1-1s-.4-1-1-1h-4.4c-.6 0-1 .4-1 1s.4 1 1 1z"/><path d="m39.4 56.1h4.6c.6 0 1-.4 1-1s-.4-1-1-1h-4.5c-.6 0-1 .4-1 1s.4 1 .9 1z"/><path d="m48 43.2c0 2.8 2.3 5 5 5 2.8 0 5-2.3 5-5 0-2.8-2.3-5-5-5s-5 2.3-5 5zm5.1-3c1.7 0 3 1.4 3 3 0 1.7-1.4 3-3 3-1.7 0-3-1.4-3-3-.1-1.6 1.3-3 3-3z"/><path d="m33.5 12.6c0-.6-.4-1-1-1h-5.4c-.6 0-1 .4-1 1v4.5c0 .6.4 1 1 1h5.4c.6 0 1-.4 1-1zm-2 3.6h-3.4v-2.5h3.4z"/><path d="m45.5 12.6c0-.6-.4-1-1-1h-5.4c-.6 0-1 .4-1 1v4.5c0 .6.4 1 1 1h5.4c.6 0 1-.4 1-1zm-2 3.6h-3.4v-2.5h3.4z"/><path d="m51.2 18.2h5.4c.6 0 1-.4 1-1v-4.5c0-.6-.4-1-1-1h-5.4c-.6 0-1 .4-1 1v4.5c0 .5.4 1 1 1zm1-4.6h3.4v2.5h-3.4z"/><path d="m32.5 21.1h-5.4c-.6 0-1 .4-1 1v4.5c0 .6.4 1 1 1h5.4c.6 0 1-.4 1-1v-4.5c0-.6-.4-1-1-1zm-1 4.5h-3.4v-2.5h3.4z"/><path d="m44.5 21.1h-5.4c-.6 0-1 .4-1 1v4.5c0 .6.4 1 1 1h5.4c.6 0 1-.4 1-1v-4.5c0-.6-.4-1-1-1zm-1 4.5h-3.4v-2.5h3.4z"/><path d="m50.2 26.6c0 .6.4 1 1 1h5.4c.6 0 1-.4 1-1v-4.5c0-.6-.4-1-1-1h-5.4c-.6 0-1 .4-1 1zm2-3.5h3.4v2.5h-3.4z"/></g></svg>