<svg height="496pt" viewBox="-34 0 496 496" width="496pt" xmlns="http://www.w3.org/2000/svg"><path d="m420 344.398438h-412c-2.800781 0-5.601562-1.597657-6.800781-4-1.597657-2.398438-1.597657-5.597657 0-8l66-120.398438c1.601562-2.398438 4-4 7.199219-4h284.800781c3.199219 0 5.601562 1.601562 7.199219 4.398438l61.203124 120.402343c1.199219 2.398438 1.199219 5.597657-.402343 8-2 2.398438-4.398438 3.597657-7.199219 3.597657zm-398.398438-16h385.597657l-53.199219-104.398438h-275.199219zm0 0"/><path d="m246 324h-60c-8.398438 0-15.199219-6.398438-15.199219-14.398438v-66.402343c0-8 6.800781-14.398438 15.199219-14.398438h58.398438c9.203124 0 16.800781 7.199219 16.800781 16v64.800781c0 8-6.800781 14.398438-15.199219 14.398438zm-59.199219-16h58.398438v-63.199219s-.398438 0-.800781 0h-57.597657zm-.800781-71.199219v8zm0 0"/><path d="m230.800781 288.398438c0 4.402343-3.601562 8-8 8h-21.601562c-4.398438 0-8-3.597657-8-8 0-4.398438 3.601562-8 8-8h21.601562c4.398438 0 8 3.601562 8 8zm0 0"/><path d="m238.800781 264.398438c0 4.402343-3.601562 8-8 8h-29.601562c-4.398438 0-8-3.597657-8-8 0-4.398438 3.601562-8 8-8h29.601562c4.398438 0 8 3.601562 8 8zm0 0"/><path d="m149.199219 496h-105.199219c-4.398438 0-8-3.601562-8-8v-22.800781c0-23.597657 14.800781-44.398438 36.800781-52.398438 2.800781-.800781 5.597657-.402343 7.597657 1.199219 4.402343 3.601562 10 5.601562 16 5.601562s11.203124-2 16-5.601562c2-2 5.203124-2.398438 7.601562-1.601562 22 7.601562 36.800781 28.800781 36.800781 52.402343v22.800781c.398438 4.796876-3.199219 8.398438-7.601562 8.398438zm-97.199219-16h89.199219v-14.800781c0-15.199219-8.800781-29.199219-22.398438-35.597657-13.199219 8.398438-31.199219 8.398438-44 0-13.601562 6.398438-22.402343 20.398438-22.402343 35.597657zm0 0"/><path d="m124 492.398438c-4.398438 0-8-3.597657-8-8v-11.199219c0-4.398438 3.601562-8 8-8s8 3.601562 8 8v11.199219c0 4.402343-3.601562 8-8 8zm0 0"/><path d="m69.199219 492.398438c-4.398438 0-8-3.597657-8-8v-11.199219c0-4.398438 3.601562-8 8-8 4.402343 0 8 3.601562 8 8v11.199219c0 4.402343-3.597657 8-8 8zm0 0"/><path d="m96.398438 436c-22.796876 0-41.199219-18.800781-41.199219-41.601562 0-22.796876 18.800781-41.199219 41.199219-41.199219 22.402343 0 41.203124 18.800781 41.203124 41.601562s-18.402343 41.199219-41.203124 41.199219zm0-66.800781c-14 0-25.199219 11.601562-25.199219 25.601562s11.199219 25.597657 25.199219 25.597657 25.203124-11.597657 25.203124-25.597657-11.203124-25.601562-25.203124-25.601562zm0 0"/><path d="m388 496h-105.199219c-4.402343 0-8-3.601562-8-8v-22.800781c0-23.597657 14.800781-44.398438 36.800781-52.398438 2.796876-.800781 5.597657-.402343 7.597657 1.199219 4.402343 3.601562 10 5.601562 16 5.601562s11.199219-2 16-5.601562c2-2 5.199219-2.398438 7.601562-1.601562 22 7.601562 36.800781 28.800781 36.800781 52.402343v22.800781c.398438 4.796876-3.203124 8.398438-7.601562 8.398438zm-97.199219-16h89.199219v-14.800781c0-15.199219-8.800781-29.199219-22.398438-35.597657-13.203124 8.398438-31.203124 8.398438-44 0-13.601562 6.398438-22.402343 20.398438-22.402343 35.597657v14.800781zm0 0"/><path d="m362.800781 492.398438c-4.402343 0-8-3.597657-8-8v-11.199219c0-4.398438 3.597657-8 8-8 4.398438 0 8 3.601562 8 8v11.199219c0 4.402343-3.601562 8-8 8zm0 0"/><path d="m308 492.398438c-4.398438 0-8-3.597657-8-8v-11.199219c0-4.398438 3.601562-8 8-8s8 3.601562 8 8v11.199219c0 4.402343-3.601562 8-8 8zm0 0"/><path d="m335.199219 436c-22.800781 0-41.199219-18.800781-41.199219-41.601562 0-22.796876 18.398438-41.597657 41.199219-41.597657s41.199219 18.800781 41.199219 41.597657c0 22.800781-18.398438 41.601562-41.199219 41.601562zm0-66.800781c-14 0-25.199219 11.601562-25.199219 25.601562s11.199219 25.597657 25.199219 25.597657 25.199219-11.597657 25.199219-25.597657-11.199219-25.601562-25.199219-25.601562zm0 0"/><path d="m251.199219 188c-4.398438 0-8-3.601562-8-8v-14.398438c0-4.402343 3.601562-8 8-8 4.402343 0 8 3.597657 8 8v14.398438c0 4.398438-3.597657 8-8 8zm0 0"/><path d="m180.800781 188c-4.402343 0-8-3.601562-8-8v-14.398438c0-4.402343 3.597657-8 8-8 4.398438 0 8 3.597657 8 8v14.398438c0 4.398438-3.601562 8-8 8zm0 0"/><path d="m283.601562 192.398438h-135.203124c-4.398438 0-8-3.597657-8-8v-28.398438c0-28.800781 18.402343-54.398438 46-64 2.402343-.800781 5.203124-.398438 7.601562 1.199219 5.601562 4.402343 12.398438 7.199219 19.601562 7.601562h6.398438c6.800781-.800781 13.199219-3.199219 18-7.601562 2-1.597657 5.199219-2.398438 7.601562-1.597657 28 9.597657 46.398438 35.199219 46 64v28.398438c0 4.800781-3.601562 8.398438-8 8.398438zm-127.203124-16h119.203124v-20.398438c.398438-20.398438-12.402343-38.800781-31.203124-47.199219-6.398438 4.398438-13.597657 7.199219-22 8-.398438 0-1.199219 0-1.597657 0h-7.601562c-.398438 0-.800781 0-1.199219 0-8.398438-.800781-16.800781-3.601562-24-8.402343-18.800781 8-31.601562 26.800781-31.601562 47.203124zm0 0"/><path d="m216.800781 177.199219c-2 0-4-.800781-5.199219-2l-16-14.800781c-2.402343-2-3.203124-5.199219-2.402343-8l12-45.597657c.800781-3.601562 4-6 7.601562-6 1.199219 0 2.398438.398438 3.597657.800781 1.203124-.800781 2.402343-1.203124 4-1.203124 3.601562 0 7.203124 2.402343 8 6.402343l10.402343 46.800781c.800781 2.796876-.402343 5.597657-2.402343 7.597657l-14.398438 14c-1.199219 1.199219-3.199219 2-5.199219 2zm-7.199219-25.199219 6.796876 6.398438 5.601562-5.597657-6-26zm0 0"/><path d="m216 92.800781c-26.398438 0-47.601562-20.800781-47.601562-46.402343 0-25.597657 21.203124-46.398438 47.601562-46.398438s47.601562 20.800781 47.601562 46.398438c0 25.601562-21.203124 46.402343-47.601562 46.402343zm0-76.800781c-17.199219 0-31.601562 13.601562-31.601562 30.398438 0 16.800781 14 30.402343 31.601562 30.402343s31.601562-13.601562 31.601562-30.402343c0-16.796876-14.402343-30.398438-31.601562-30.398438zm0 0"/></svg>